<svg width="335" height="48" viewBox="0 0 335 48" fill="none" xmlns="http://www.w3.org/2000/svg">
<rect width="335" height="48" rx="8" fill="url(#paint0_linear_350_33118)"/>
<path fill-rule="evenodd" clip-rule="evenodd" d="M120.543 31.9519C121.257 31.9519 121.838 32.5319 121.838 33.2459C121.838 33.9599 121.257 34.5409 120.543 34.5409C119.829 34.5409 119.249 33.9599 119.249 33.2459C119.249 32.5319 119.829 31.9519 120.543 31.9519ZM131.824 31.9519C132.539 31.9519 133.12 32.5319 133.12 33.2459C133.12 33.9599 132.539 34.5409 131.824 34.5409C131.11 34.5409 130.53 33.9599 130.53 33.2459C130.53 32.5319 131.11 31.9519 131.824 31.9519ZM116.268 15.0095L118.348 15.3695C118.683 15.4285 118.938 15.7065 118.967 16.0465L119.202 18.8475L120.075 18.8479C120.218 18.8479 120.359 18.848 120.499 18.8481L122.103 18.8488C122.231 18.8489 122.357 18.8489 122.482 18.849L124.254 18.85C124.365 18.85 124.475 18.8501 124.584 18.8502L125.825 18.851C125.923 18.851 126.02 18.8511 126.116 18.8512L127.208 18.852C127.294 18.852 127.379 18.8521 127.463 18.8522L128.415 18.853C128.49 18.8531 128.564 18.8531 128.636 18.8532L129.262 18.8538C129.329 18.8539 129.394 18.854 129.458 18.854L130.183 18.8549C130.239 18.8549 130.295 18.855 130.349 18.8551L130.961 18.8559C131.009 18.856 131.055 18.8561 131.101 18.8562L131.49 18.8568C131.531 18.8569 131.57 18.8569 131.61 18.857L132.043 18.8579C132.076 18.858 132.108 18.858 132.14 18.8581L132.406 18.8588C132.434 18.8589 132.461 18.8589 132.487 18.859L132.773 18.8599C132.794 18.86 132.815 18.8601 132.836 18.8601L133.003 18.8608C133.02 18.8609 133.037 18.861 133.053 18.861L133.223 18.862C133.235 18.8621 133.247 18.8621 133.258 18.8622L133.351 18.8629C133.36 18.863 133.369 18.8631 133.377 18.8631L133.444 18.8639C133.45 18.8639 133.456 18.864 133.462 18.8641L133.508 18.8648C133.512 18.8649 133.516 18.865 133.52 18.8651L133.548 18.8658C133.551 18.8659 133.553 18.8659 133.556 18.866L133.576 18.867C133.578 18.8671 133.579 18.8672 133.58 18.8672C133.59 18.8682 133.591 18.8683 133.593 18.8685C134.15 18.9495 134.64 19.2405 134.974 19.6885C135.308 20.1355 135.448 20.6865 135.368 21.2385L134.419 27.7965C134.24 29.0445 133.156 29.9855 131.896 29.9855H120.975C119.658 29.9855 118.543 28.9575 118.436 27.6425L117.52 16.7485L116.013 16.4885C115.604 16.4165 115.331 16.0295 115.401 15.6205C115.473 15.2115 115.868 14.9455 116.268 15.0095ZM119.875 20.3478L119.328 20.3475L119.931 27.5195C119.975 28.0715 120.426 28.4855 120.977 28.4855H131.894C132.415 28.4855 132.86 28.0975 132.934 27.5825L133.884 21.0235C133.906 20.8675 133.867 20.7115 133.772 20.5855C133.678 20.4585 133.54 20.3765 133.384 20.3545C133.376 20.3548 133.359 20.355 133.332 20.3552L133.224 20.3559C133.201 20.356 133.176 20.356 133.149 20.3561L132.582 20.357C132.534 20.357 132.484 20.3571 132.433 20.3571L131.101 20.357C131.027 20.357 130.951 20.357 130.874 20.3569L129.354 20.356C129.263 20.3559 129.171 20.3559 129.078 20.3558L128.217 20.3551C128.119 20.355 128.021 20.3549 127.921 20.3549L127.01 20.3541C126.907 20.354 126.804 20.3539 126.7 20.3538L126.073 20.3532C125.967 20.3531 125.862 20.353 125.756 20.3529L124.798 20.352C124.691 20.3519 124.585 20.3518 124.478 20.3517L123.837 20.3511C123.73 20.351 123.624 20.3509 123.518 20.3508L122.882 20.3502C122.777 20.3502 122.672 20.3501 122.567 20.35L121.637 20.3492C121.535 20.3491 121.434 20.349 121.333 20.3489L120.157 20.348C120.062 20.348 119.968 20.3479 119.875 20.3478ZM130.287 22.5438C130.701 22.5438 131.037 22.8798 131.037 23.2938C131.037 23.7078 130.701 24.0438 130.287 24.0438H127.515C127.1 24.0438 126.765 23.7078 126.765 23.2938C126.765 22.8798 127.1 22.5438 127.515 22.5438H130.287Z" fill="white"/>
<path d="M139.262 30L140.286 27.12H145.15L146.19 30H147.838L143.598 18.432H141.854L137.63 30H139.262ZM142.526 20.928C142.606 20.688 142.686 20.416 142.718 20.256C142.75 20.432 142.83 20.704 142.91 20.928L144.686 25.76H140.766L142.526 20.928ZM151.958 30.192C153.206 30.192 154.262 29.648 154.774 28.576L154.902 30H156.246V18.224H154.758V23.44C154.23 22.48 153.222 21.952 152.022 21.952C149.702 21.952 148.31 23.712 148.31 26.112C148.31 28.496 149.686 30.192 151.958 30.192ZM152.262 28.832C150.726 28.832 149.83 27.68 149.83 26.064C149.83 24.464 150.726 23.312 152.262 23.312C153.798 23.312 154.742 24.464 154.742 26.064C154.742 27.696 153.798 28.832 152.262 28.832ZM161.552 30.192C162.8 30.192 163.856 29.648 164.368 28.576L164.496 30H165.84V18.224H164.352V23.44C163.824 22.48 162.816 21.952 161.616 21.952C159.296 21.952 157.904 23.712 157.904 26.112C157.904 28.496 159.28 30.192 161.552 30.192ZM161.856 28.832C160.32 28.832 159.424 27.68 159.424 26.064C159.424 24.464 160.32 23.312 161.856 23.312C163.392 23.312 164.336 24.464 164.336 26.064C164.336 27.696 163.392 28.832 161.856 28.832ZM174.593 30V23.44H176.129V22.176H174.593V19.728H173.089V22.176H171.553V23.44H173.089V30H174.593ZM176.889 26.08C176.889 28.496 178.617 30.192 180.969 30.192C183.305 30.192 185.033 28.496 185.033 26.08C185.033 23.664 183.305 21.968 180.969 21.968C178.617 21.968 176.889 23.664 176.889 26.08ZM178.409 26.08C178.409 24.448 179.449 23.312 180.969 23.312C182.473 23.312 183.529 24.448 183.529 26.08C183.529 27.712 182.473 28.848 180.969 28.848C179.449 28.848 178.409 27.712 178.409 26.08ZM196.128 30.176C198.736 30.176 200.8 28.64 201.296 26.336H199.632C199.2 27.76 197.856 28.672 196.16 28.672C193.824 28.672 192.288 26.912 192.288 24.208C192.288 21.504 193.824 19.744 196.16 19.744C197.84 19.744 199.136 20.656 199.568 22.16H201.248C200.816 19.792 198.816 18.24 196.208 18.24C192.896 18.24 190.64 20.656 190.64 24.224C190.64 27.808 192.832 30.176 196.128 30.176ZM205.095 30.192C206.359 30.192 207.431 29.632 207.831 28.736L207.991 30H209.271V25.088C209.271 22.976 207.959 21.952 206.023 21.952C204.007 21.952 202.663 23.024 202.663 24.656H203.975C203.975 23.712 204.695 23.152 205.959 23.152C207.015 23.152 207.799 23.616 207.799 24.928V25.152L205.335 25.344C203.495 25.488 202.423 26.384 202.423 27.824C202.423 29.248 203.415 30.192 205.095 30.192ZM205.527 29.024C204.551 29.024 203.943 28.608 203.943 27.776C203.943 27.008 204.487 26.496 205.815 26.368L207.815 26.208V26.624C207.815 28.096 206.951 29.024 205.527 29.024ZM215.834 22.112C215.53 22.048 215.306 22.016 215.034 22.016C213.962 22.016 213.178 22.56 212.858 23.376L212.762 22.192H211.354V30H212.858V25.856C212.858 24.352 213.738 23.488 215.162 23.488H215.834V22.112ZM219.765 30V23.44H221.301V22.176H219.765V19.728H218.261V22.176H216.725V23.44H218.261V30H219.765Z" fill="white"/>
<defs>
<linearGradient id="paint0_linear_350_33118" x1="167.5" y1="-16.5" x2="167.5" y2="48" gradientUnits="userSpaceOnUse">
<stop stop-color="#3F3F3F"/>
<stop offset="1" stop-color="#101010"/>
</linearGradient>
</defs>
</svg>
