<svg width="572" height="19" viewBox="0 0 572 19" fill="none" xmlns="http://www.w3.org/2000/svg">
<path d="M4.088 15.168C6.272 15.168 7.77 13.698 7.77 11.598C7.77 9.652 6.44 8.21 4.382 8.21C3.626 8.21 2.954 8.42 2.422 8.826L3.094 6.138H7.168V4.878H2.1L0.868 10.072L2.03 10.366C2.492 9.792 3.276 9.386 4.13 9.386C5.544 9.386 6.37 10.352 6.37 11.654C6.37 13.026 5.488 13.936 4.116 13.936C2.828 13.936 2.03 13.138 2.03 11.836H0.672C0.672 13.852 2.016 15.168 4.088 15.168ZM9.9027 15.168C10.4347 15.168 10.8967 14.72 10.8967 14.188C10.8967 13.642 10.4347 13.194 9.9027 13.194C9.3567 13.194 8.8947 13.642 8.8947 14.188C8.8947 14.72 9.3567 15.168 9.9027 15.168ZM11.9516 9.946C11.9516 13.096 13.5056 15.182 16.1236 15.182C18.7276 15.182 20.2816 13.096 20.2816 9.946C20.2816 6.81 18.6576 4.682 16.1236 4.682C13.5756 4.682 11.9516 6.81 11.9516 9.946ZM13.3096 9.946C13.3096 7.426 14.3456 5.914 16.1236 5.914C17.9016 5.914 18.9236 7.426 18.9236 9.946C18.9236 12.438 17.9016 13.95 16.1236 13.95C14.3456 13.95 13.3096 12.438 13.3096 9.946Z" fill="#878787"/>
<path d="M44.9456 11.048C44.7729 11.2153 44.6936 11.4573 44.7329 11.6946L45.3256 14.9746C45.3756 15.2526 45.2583 15.534 45.0256 15.6946C44.7976 15.8613 44.4943 15.8813 44.2456 15.748L41.2929 14.208C41.1903 14.1533 41.0763 14.124 40.9596 14.1206H40.7789C40.7163 14.13 40.6549 14.15 40.5989 14.1806L37.6456 15.728C37.4996 15.8013 37.3343 15.8273 37.1723 15.8013C36.7776 15.7266 36.5143 15.3506 36.5789 14.954L37.1723 11.674C37.2116 11.4346 37.1323 11.1913 36.9596 11.0213L34.5523 8.68797C34.3509 8.49263 34.2809 8.1993 34.3729 7.93464C34.4623 7.67064 34.6903 7.47797 34.9656 7.43464L38.2789 6.95397C38.5309 6.92797 38.7523 6.77464 38.8656 6.54797L40.3256 3.55464C40.3603 3.48797 40.4049 3.42664 40.4589 3.37464L40.5189 3.32797C40.5503 3.2933 40.5863 3.26464 40.6263 3.2413L40.6989 3.21464L40.8123 3.16797H41.0929C41.3436 3.19397 41.5643 3.34397 41.6796 3.56797L43.1589 6.54797C43.2656 6.76597 43.4729 6.9173 43.7123 6.95397L47.0256 7.43464C47.3056 7.47464 47.5396 7.66797 47.6323 7.93464C47.7196 8.20197 47.6443 8.4953 47.4389 8.68797L44.9456 11.048Z" fill="#FFB115"/>
<path d="M64.9456 11.048C64.7729 11.2153 64.6936 11.4573 64.7329 11.6946L65.3256 14.9746C65.3756 15.2526 65.2583 15.534 65.0256 15.6946C64.7976 15.8613 64.4943 15.8813 64.2456 15.748L61.2929 14.208C61.1903 14.1533 61.0763 14.124 60.9596 14.1206H60.7789C60.7163 14.13 60.6549 14.15 60.5989 14.1806L57.6456 15.728C57.4996 15.8013 57.3343 15.8273 57.1723 15.8013C56.7776 15.7266 56.5143 15.3506 56.5789 14.954L57.1723 11.674C57.2116 11.4346 57.1323 11.1913 56.9596 11.0213L54.5523 8.68797C54.3509 8.49263 54.2809 8.1993 54.3729 7.93464C54.4623 7.67064 54.6903 7.47797 54.9656 7.43464L58.2789 6.95397C58.5309 6.92797 58.7523 6.77464 58.8656 6.54797L60.3256 3.55464C60.3603 3.48797 60.4049 3.42664 60.4589 3.37464L60.5189 3.32797C60.5503 3.2933 60.5863 3.26464 60.6263 3.2413L60.6989 3.21464L60.8123 3.16797H61.0929C61.3436 3.19397 61.5643 3.34397 61.6796 3.56797L63.1589 6.54797C63.2656 6.76597 63.4729 6.9173 63.7123 6.95397L67.0256 7.43464C67.3056 7.47464 67.5396 7.66797 67.6323 7.93464C67.7196 8.20197 67.6443 8.4953 67.4389 8.68797L64.9456 11.048Z" fill="#FFB115"/>
<path d="M84.9456 11.048C84.7729 11.2153 84.6936 11.4573 84.7329 11.6946L85.3256 14.9746C85.3756 15.2526 85.2583 15.534 85.0256 15.6946C84.7976 15.8613 84.4943 15.8813 84.2456 15.748L81.2929 14.208C81.1903 14.1533 81.0763 14.124 80.9596 14.1206H80.7789C80.7163 14.13 80.6549 14.15 80.5989 14.1806L77.6456 15.728C77.4996 15.8013 77.3343 15.8273 77.1723 15.8013C76.7776 15.7266 76.5143 15.3506 76.5789 14.954L77.1723 11.674C77.2116 11.4346 77.1323 11.1913 76.9596 11.0213L74.5523 8.68797C74.3509 8.49263 74.2809 8.1993 74.3729 7.93464C74.4623 7.67064 74.6903 7.47797 74.9656 7.43464L78.2789 6.95397C78.5309 6.92797 78.7523 6.77464 78.8656 6.54797L80.3256 3.55464C80.3603 3.48797 80.4049 3.42664 80.4589 3.37464L80.5189 3.32797C80.5503 3.2933 80.5863 3.26464 80.6263 3.2413L80.6989 3.21464L80.8123 3.16797H81.0929C81.3436 3.19397 81.5643 3.34397 81.6796 3.56797L83.1589 6.54797C83.2656 6.76597 83.4729 6.9173 83.7123 6.95397L87.0256 7.43464C87.3056 7.47464 87.5396 7.66797 87.6323 7.93464C87.7196 8.20197 87.6443 8.4953 87.4389 8.68797L84.9456 11.048Z" fill="#FFB115"/>
<path d="M104.946 11.048C104.773 11.2153 104.694 11.4573 104.733 11.6946L105.326 14.9746C105.376 15.2526 105.258 15.534 105.026 15.6946C104.798 15.8613 104.494 15.8813 104.246 15.748L101.293 14.208C101.19 14.1533 101.076 14.124 100.96 14.1206H100.779C100.716 14.13 100.655 14.15 100.599 14.1806L97.6456 15.728C97.4996 15.8013 97.3343 15.8273 97.1723 15.8013C96.7776 15.7266 96.5143 15.3506 96.5789 14.954L97.1723 11.674C97.2116 11.4346 97.1323 11.1913 96.9596 11.0213L94.5523 8.68797C94.3509 8.49263 94.2809 8.1993 94.3729 7.93464C94.4623 7.67064 94.6903 7.47797 94.9656 7.43464L98.2789 6.95397C98.5309 6.92797 98.7523 6.77464 98.8656 6.54797L100.326 3.55464C100.36 3.48797 100.405 3.42664 100.459 3.37464L100.519 3.32797C100.55 3.2933 100.586 3.26464 100.626 3.2413L100.699 3.21464L100.812 3.16797H101.093C101.344 3.19397 101.564 3.34397 101.68 3.56797L103.159 6.54797C103.266 6.76597 103.473 6.9173 103.712 6.95397L107.026 7.43464C107.306 7.47464 107.54 7.66797 107.632 7.93464C107.72 8.20197 107.644 8.4953 107.439 8.68797L104.946 11.048Z" fill="#FFB115"/>
<g opacity="0.14">
<path d="M124.946 11.048C124.773 11.2153 124.694 11.4573 124.733 11.6946L125.326 14.9746C125.376 15.2526 125.258 15.534 125.026 15.6946C124.798 15.8613 124.494 15.8813 124.246 15.748L121.293 14.208C121.19 14.1533 121.076 14.124 120.96 14.1206H120.779C120.716 14.13 120.655 14.15 120.599 14.1806L117.646 15.728C117.5 15.8013 117.334 15.8273 117.172 15.8013C116.778 15.7266 116.514 15.3506 116.579 14.954L117.172 11.674C117.212 11.4346 117.132 11.1913 116.96 11.0213L114.552 8.68797C114.351 8.49263 114.281 8.1993 114.373 7.93464C114.462 7.67064 114.69 7.47797 114.966 7.43464L118.279 6.95397C118.531 6.92797 118.752 6.77464 118.866 6.54797L120.326 3.55464C120.36 3.48797 120.405 3.42664 120.459 3.37464L120.519 3.32797C120.55 3.2933 120.586 3.26464 120.626 3.2413L120.699 3.21464L120.812 3.16797H121.093C121.344 3.19397 121.564 3.34397 121.68 3.56797L123.159 6.54797C123.266 6.76597 123.473 6.9173 123.712 6.95397L127.026 7.43464C127.306 7.47464 127.54 7.66797 127.632 7.93464C127.72 8.20197 127.644 8.4953 127.439 8.68797L124.946 11.048Z" fill="black"/>
</g>
<path d="M144.584 9.764C146.194 9.764 147.034 10.576 147.034 11.794C147.034 13.096 146.18 13.936 144.864 13.936C143.59 13.936 142.778 13.166 142.778 11.85H141.42C141.42 13.95 142.848 15.168 144.836 15.168C146.894 15.168 148.434 13.866 148.434 11.822C148.434 10.002 147.132 8.84 145.41 8.63L148.182 5.984V4.878H141.896V6.096H146.446L143.576 8.854V9.764H144.584ZM151.438 6.11V15H152.754V4.878H149.31V6.11H151.438ZM160.296 15V10.996H162.886L164.776 15H166.302L164.244 10.73C165.504 10.324 166.204 9.316 166.204 7.916C166.204 6.026 164.916 4.878 162.746 4.878H158.924V15H160.296ZM160.296 6.11H162.746C164.006 6.11 164.762 6.754 164.762 7.93C164.762 9.092 164.034 9.778 162.76 9.778H160.296V6.11ZM169.589 15.168C170.695 15.168 171.633 14.678 171.983 13.894L172.123 15H173.243V10.702C173.243 8.854 172.095 7.958 170.401 7.958C168.637 7.958 167.461 8.896 167.461 10.324H168.609C168.609 9.498 169.239 9.008 170.345 9.008C171.269 9.008 171.955 9.414 171.955 10.562V10.758L169.799 10.926C168.189 11.052 167.251 11.836 167.251 13.096C167.251 14.342 168.119 15.168 169.589 15.168ZM169.967 14.146C169.113 14.146 168.581 13.782 168.581 13.054C168.581 12.382 169.057 11.934 170.219 11.822L171.969 11.682V12.046C171.969 13.334 171.213 14.146 169.967 14.146ZM176.888 15V9.26H178.232V8.154H176.888V6.012H175.572V8.154H174.228V9.26H175.572V15H176.888ZM180.057 6.53C180.533 6.53 180.925 6.138 180.925 5.662C180.925 5.172 180.533 4.794 180.057 4.794C179.581 4.794 179.189 5.172 179.189 5.662C179.189 6.138 179.581 6.53 180.057 6.53ZM179.413 15H180.729V8.154H179.413V15ZM183.956 15V11.374C183.956 10.044 184.67 9.162 185.902 9.162C186.91 9.162 187.554 9.722 187.554 11.108V15H188.87V10.814C188.87 9.064 188.044 7.958 186.238 7.958C185.272 7.958 184.404 8.42 183.97 9.204L183.83 8.154H182.64V15H183.956ZM190.258 11.402C190.258 13.32 191.49 14.818 193.436 14.818C194.514 14.818 195.41 14.342 195.858 13.544V14.916C195.858 16.218 195.018 17.058 193.73 17.058C192.582 17.058 191.826 16.47 191.658 15.462H190.342C190.594 17.198 191.868 18.248 193.73 18.248C195.83 18.248 197.16 16.876 197.16 14.72V8.154H195.984L195.886 9.316C195.452 8.462 194.598 7.958 193.492 7.958C191.504 7.958 190.258 9.47 190.258 11.402ZM191.574 11.374C191.574 10.114 192.358 9.106 193.674 9.106C195.018 9.106 195.802 10.058 195.802 11.374C195.802 12.718 194.99 13.67 193.66 13.67C192.372 13.67 191.574 12.662 191.574 11.374ZM198.499 13.012C198.499 14.314 199.521 15.168 201.131 15.168C202.755 15.168 203.875 14.342 203.875 13.04C203.875 12.018 203.301 11.486 202.139 11.206L200.935 10.912C200.263 10.744 199.927 10.436 199.927 9.974C199.927 9.344 200.389 8.98 201.215 8.98C202.013 8.98 202.475 9.414 202.503 10.1H203.763C203.735 8.798 202.755 7.958 201.257 7.958C199.745 7.958 198.681 8.756 198.681 10.016C198.681 11.024 199.255 11.626 200.473 11.92L201.677 12.2C202.391 12.382 202.615 12.662 202.615 13.124C202.615 13.754 202.083 14.132 201.159 14.132C200.291 14.132 199.759 13.712 199.759 13.012H198.499Z" fill="#878787"/>
</svg>
